<svg width="512" height="512" viewBox="0 0 512 512" xmlns="http://www.w3.org/2000/svg"><g fill="none" fill-rule="evenodd"><g><g stroke="#fff" stroke-width="5"><path d="M198.06 285.987c-.05 30.827-25.52 55.776-56.894 55.733-31.374-.046-56.767-25.073-56.722-55.903.047-30.826 25.52-55.78 56.89-55.734 31.377.047 56.77 25.072 56.726 55.904z"/><path d="M428.946 332.264l-107.996-.158.155-102.023 107.995.157-.154 102.024z"/><path d="M141.333 230.082V62.05h233.692v166.934"/></g><g fill="#fff"><path d="M135.757 453.672V413.43c0-9.348-4.902-15.618-19.38-15.618-10.374 0-19.836 3.192-20.406 9.348-1.937-5.7-7.637-9.348-18.353-9.348-10.374 0-18.012 2.736-19.722 8.892v-7.752H52.31v54.72h5.813v-39.786c0-7.41 4.674-11.856 17.328-11.856 11.97 0 15.62 4.218 15.62 11.856v39.786h5.813v-39.786c0-7.068 4.218-11.856 17.328-11.856 12.085 0 15.733 4.218 15.733 11.856v39.786h5.814zm49.653-55.86c-15.96 0-24.168 3.078-24.168 18.924v19.608c0 15.39 8.094 18.468 24.168 18.468 15.96 0 24.168-3.078 24.168-18.468v-19.608c0-15.846-8.208-18.924-24.168-18.924zm0 52.782c-13.11 0-18.354-3.192-18.354-13.452v-21.204c0-10.374 4.446-13.908 18.354-13.908s18.354 3.534 18.354 13.908v21.204c0 10.26-5.244 13.452-18.354 13.452zm96.164-76.722h-5.7v31.236c-1.71-4.446-6.954-7.296-20.292-7.296-14.82 0-21.888 5.358-21.888 17.442v21.432c0 14.478 7.524 18.126 23.484 18.126 13.908 0 24.396-1.482 24.396-18.468v-62.472zm-5.7 63.384c0 11.4-6.954 13.452-18.126 13.452-12.768 0-18.24-1.824-18.24-16.074v-18.582c0-11.4 4.56-14.136 17.784-14.136 12.426 0 18.582 3.192 18.582 13.794v21.546zm76.328-9.804v-11.058c0-13.794-6.384-18.582-22.002-18.582-16.758 0-23.028 4.902-23.028 18.582v20.178c0 13.338 6.156 18.24 22.914 18.24h.342c16.986 0 21.318-5.358 21.546-15.048h-5.814c-.228 6.612-2.736 10.83-15.276 10.83h-.912c-13.68 0-16.986-4.674-16.986-14.25v-8.892h39.216zm-5.814-3.99h-33.402v-7.98c0-9.234 3.534-13.452 16.986-13.452 11.97 0 16.416 3.306 16.416 12.996v8.436zm114.29 30.21V413.43c0-9.348-4.9-15.618-19.38-15.618-10.373 0-19.835 3.192-20.405 9.348-1.938-5.7-7.638-9.348-18.354-9.348-10.375 0-18.013 2.736-19.723 8.892v-7.752h-5.586v54.72h5.815v-39.786c0-7.41 4.674-11.856 17.328-11.856 11.97 0 15.618 4.218 15.618 11.856v39.786h5.815v-39.786c0-7.068 4.218-11.856 17.328-11.856 12.084 0 15.732 4.218 15.732 11.856v39.786h5.814z"/></g></g></g></svg>